<?xml version="1.0" standalone="no"?>
<!DOCTYPE svg PUBLIC "-//W3C//DTD SVG 20010904//EN"
 "http://www.w3.org/TR/2001/REC-SVG-20010904/DTD/svg10.dtd">
<svg version="1.0" xmlns="http://www.w3.org/2000/svg"
 width="668.000000pt" height="373.000000pt" viewBox="0 0 668.000000 373.000000"
 preserveAspectRatio="xMidYMid meet">

<g transform="translate(0.000000,373.000000) scale(0.100000,-0.100000)"
fill="#000000" stroke="none">
<path d="M2390 3129 c-132 -19 -429 -80 -570 -119 -218 -59 -342 -109 -409
-166 -75 -63 -162 -304 -212 -589 -22 -123 -35 -347 -25 -415 7 -46 39 -100
51 -88 4 4 15 71 26 150 33 260 66 406 125 559 93 244 174 336 350 395 67 22
253 64 286 64 6 0 -27 -39 -73 -87 -181 -188 -299 -364 -379 -568 -75 -187
-192 -567 -179 -579 27 -28 384 -34 584 -11 214 25 438 77 463 108 6 7 18 116
27 242 23 329 51 588 81 755 25 138 25 134 -17 138 -19 2 -46 -1 -60 -7 -24
-9 -26 -17 -38 -113 -21 -171 -50 -345 -62 -371 -14 -31 -48 -47 -98 -47 -74
0 -83 39 -56 231 24 172 56 270 102 312 24 21 138 47 211 47 52 0 53 1 67 38
8 20 26 58 40 85 l25 47 -98 -1 c-53 -1 -126 -6 -162 -10z m-575 -865 c-87
-247 -186 -437 -216 -418 -14 8 -11 85 7 145 23 77 94 224 149 310 51 80 108
146 113 131 1 -5 -22 -81 -53 -168z"/>
<path d="M2806 3120 c-50 -15 -93 -71 -118 -155 -14 -47 -47 -232 -58 -320
-26 -228 -39 -363 -49 -490 -18 -243 -21 -292 -15 -298 3 -3 56 28 118 70 170
115 351 198 491 227 l60 12 6 254 c3 140 10 277 14 303 16 104 28 23 36 -259
5 -158 12 -291 16 -295 7 -6 526 -119 547 -119 3 0 6 55 7 123 1 158 14 194
22 62 4 -55 7 -121 7 -146 l0 -47 78 -17 c42 -9 153 -34 247 -56 93 -21 177
-39 185 -39 13 0 15 19 13 127 -3 152 13 129 24 -34 l6 -102 51 -15 c59 -17
381 -96 390 -96 3 0 6 55 7 123 1 141 14 123 25 -35 l6 -97 51 -15 c29 -8 89
-20 134 -27 73 -11 87 -10 128 5 34 14 50 27 65 56 30 58 52 281 34 346 -4 16
-34 35 -102 67 -389 183 -1002 423 -1637 642 -226 77 -715 241 -750 251 -5 1
-23 -2 -39 -6z"/>
<path d="M1157 2789 c-21 -5 -47 -14 -57 -19 -28 -15 -65 -83 -95 -175 -23
-68 -27 -98 -29 -208 -1 -117 1 -130 18 -143 28 -20 79 -17 103 6 25 23 28 36
48 200 31 256 38 274 118 300 25 8 49 19 53 23 24 24 -80 35 -159 16z"/>
<path d="M5440 2150 c-19 -19 -20 -33 -20 -470 0 -420 -1 -451 -17 -458 -10
-3 -76 -7 -147 -7 l-130 0 -12 41 c-26 89 -69 124 -152 124 -75 0 -112 -29
-139 -110 l-22 -65 -633 0 -633 0 -6 70 c-8 88 -43 160 -110 227 -167 167
-410 126 -515 -86 -30 -63 -37 -88 -41 -160 -7 -104 -3 -102 -167 -92 -131 9
-171 23 -247 92 l-54 49 -610 -8 c-335 -5 -612 -11 -615 -13 -9 -10 35 -77 69
-105 77 -63 112 -73 282 -77 l155 -4 23 -43 c13 -24 29 -46 37 -49 8 -3 14
-10 14 -16 0 -6 -62 -10 -176 -10 -97 0 -195 -5 -220 -11 -53 -14 -72 -39 -47
-65 19 -18 55 -18 778 6 160 6 470 15 690 20 220 6 625 17 900 25 275 9 676
20 890 25 215 6 514 15 665 20 151 5 289 10 305 10 17 0 37 5 45 10 13 9 13
11 0 20 -10 8 -93 9 -252 4 -133 -3 -238 -3 -238 2 0 5 9 23 19 40 l19 31 204
6 c111 3 291 11 398 17 175 10 225 19 208 35 -2 3 -100 11 -216 18 -117 8
-213 15 -215 18 -3 2 -7 124 -11 272 -6 250 -5 267 11 267 10 0 88 -9 173 -20
161 -21 267 -26 240 -11 -8 4 -108 36 -221 71 l-207 64 -4 106 c-3 58 -2 109
2 113 4 4 90 -17 191 -47 204 -62 260 -75 244 -58 -13 14 -434 202 -452 202
-7 0 -22 -9 -33 -20z m-2132 -717 c118 -73 138 -257 39 -361 -45 -48 -78 -62
-142 -62 -75 0 -128 28 -165 86 -72 114 -52 255 45 330 69 52 146 55 223 7z
m1727 -148 c19 -18 25 -35 25 -70 0 -83 -44 -132 -95 -105 -51 27 -62 128 -20
174 30 33 59 33 90 1z m-317 -205 c12 -21 22 -41 22 -43 0 -2 -61 -5 -136 -6
l-135 -2 17 33 c29 57 31 58 123 58 l86 0 23 -40z m-621 -11 c15 -28 18 -41
10 -44 -22 -6 -687 -16 -687 -10 0 4 14 26 30 51 l31 44 297 0 297 0 22 -41z
m-1844 16 c-8 -22 -82 -71 -120 -79 -52 -12 -100 3 -138 42 -19 20 -35 40 -35
44 0 4 67 8 150 8 130 0 149 -2 143 -15z m518 -7 c6 -13 21 -33 32 -45 11 -13
18 -25 15 -28 -9 -9 -558 -19 -558 -10 0 5 10 30 22 57 l22 48 227 0 c227 0
228 0 240 -22z"/>
<path d="M3120 1374 c-44 -38 -63 -81 -63 -144 0 -95 52 -163 125 -164 33 -1
43 3 46 17 2 11 -3 17 -14 17 -29 0 -54 31 -70 86 -19 65 -7 118 36 168 16 18
27 36 23 40 -14 14 -53 5 -83 -20z"/>
<path d="M3138 1956 c-83 -30 -177 -100 -147 -111 8 -2 120 -18 249 -34 271
-35 1483 -190 1800 -231 186 -24 248 -25 229 -5 -6 6 -402 87 -1265 260 -704
142 -778 152 -866 121z"/>
<path d="M3375 1664 c98 -88 87 -84 282 -100 98 -8 237 -19 308 -24 442 -32
1009 -76 1164 -90 127 -12 121 -12 121 -1 0 14 -41 20 -830 120 -869 111
-1027 131 -1055 131 l-30 -1 40 -35z"/>
<path d="M2330 1644 c-180 -38 -244 -71 -265 -135 l-12 -34 -296 -3 -297 -2
-22 33 c-29 45 -72 72 -164 103 -116 38 -118 37 -122 -69 -2 -57 1 -94 9 -103
10 -12 112 -14 629 -14 562 0 619 1 631 17 18 21 25 173 10 202 -13 24 -14 24
-101 5z"/>
<path d="M3550 1449 c0 -19 23 -93 33 -106 7 -10 143 -13 617 -13 532 0 609 2
620 15 7 9 10 18 6 22 -3 3 -122 14 -263 24 -303 21 -657 46 -833 59 -164 12
-180 12 -180 -1z"/>
<path d="M5142 1338 c5 -15 98 -24 98 -10 0 14 -26 22 -67 22 -23 0 -33 -4
-31 -12z"/>
<path d="M5185 923 c-66 -1 -293 -7 -505 -13 -212 -6 -752 -20 -1200 -31
-1658 -41 -1665 -42 -1689 -63 -31 -28 -27 -62 10 -82 64 -33 190 -30 1164 27
99 5 304 16 455 24 394 21 633 34 810 45 85 5 295 17 465 26 484 25 648 38
652 50 5 16 -25 19 -162 17z"/>
<path d="M3510 699 c-85 -4 -292 -15 -460 -23 -168 -9 -402 -21 -520 -27 -118
-5 -239 -15 -268 -21 -54 -10 -97 -39 -89 -61 7 -21 50 -37 102 -37 101 0 741
64 1300 130 186 22 199 25 190 40 -7 11 -22 11 -255 -1z"/>
</g>
</svg>
