<?xml version="1.0" standalone="no"?>
<!DOCTYPE svg PUBLIC "-//W3C//DTD SVG 20010904//EN"
 "http://www.w3.org/TR/2001/REC-SVG-20010904/DTD/svg10.dtd">
<svg version="1.0" xmlns="http://www.w3.org/2000/svg"
 width="261.000000pt" height="211.000000pt" viewBox="0 0 261.000000 211.000000"
 preserveAspectRatio="xMidYMid meet">

<g transform="translate(0.000000,211.000000) scale(0.100000,-0.100000)"
fill="#000000" stroke="none">
<path d="M565 1990 c-11 -4 -62 -51 -112 -103 -98 -99 -109 -124 -80 -173 27
-46 309 -404 329 -418 17 -12 50 -16 138 -16 l115 0 202 -202 203 -203 -16
-45 c-21 -59 -13 -163 16 -222 27 -53 459 -491 508 -514 66 -31 93 -16 240
129 74 73 140 144 148 159 18 35 18 82 0 116 -8 15 -117 129 -243 254 -239
238 -267 259 -364 272 -41 6 -80 1 -145 -19 -17 -5 -57 30 -227 200 l-207 206
0 118 c0 138 12 119 -154 246 -65 50 -152 116 -192 148 -66 52 -112 78 -132
76 -4 0 -16 -4 -27 -9z"/>
<path d="M1640 1986 c-234 -42 -413 -235 -436 -470 l-6 -61 155 -154 155 -154
109 -1 c98 -1 114 -4 168 -30 33 -16 85 -54 116 -83 31 -29 63 -53 71 -53 26
0 134 86 178 141 88 112 125 226 118 371 -7 159 -32 157 -212 -19 l-135 -133
-140 0 c-177 0 -171 -6 -171 169 l0 124 140 142 c77 78 140 149 140 157 0 58
-104 81 -250 54z"/>
<path d="M698 781 c-152 -153 -288 -297 -302 -318 -16 -23 -29 -61 -33 -91
-18 -157 95 -286 251 -286 98 0 133 26 388 282 l226 227 -14 65 c-9 41 -12 87
-8 124 l6 58 -108 109 c-60 60 -114 109 -120 109 -5 0 -135 -125 -286 -279z
m23 -340 c39 -40 39 -82 0 -122 -50 -49 -121 -37 -147 27 -12 29 -12 39 0 68
27 64 97 77 147 27z"/>
</g>
</svg>
