<?xml version="1.0" standalone="no"?>
<!DOCTYPE svg PUBLIC "-//W3C//DTD SVG 20010904//EN"
 "http://www.w3.org/TR/2001/REC-SVG-20010904/DTD/svg10.dtd">
<svg version="1.0" xmlns="http://www.w3.org/2000/svg"
 width="201.000000pt" height="203.000000pt" viewBox="0 0 201.000000 203.000000"
 preserveAspectRatio="xMidYMid meet">

<g transform="translate(0.000000,203.000000) scale(0.100000,-0.100000)"
fill="#000000" stroke="none">
<path d="M912 1984 c-21 -14 -22 -22 -22 -145 0 -72 -4 -128 -9 -125 -4 3 -27
44 -50 91 -24 48 -49 85 -57 85 -22 0 -84 -43 -132 -91 -54 -55 -90 -129 -105
-213 -8 -49 -15 -66 -27 -66 -30 0 -40 -23 -40 -96 0 -56 3 -73 16 -78 9 -3
242 -6 519 -6 277 0 510 3 519 6 13 5 16 22 16 85 l0 80 -29 5 c-26 6 -29 10
-34 61 -12 114 -100 244 -204 301 l-43 23 -47 -95 c-26 -52 -51 -93 -55 -90
-4 3 -8 61 -8 129 0 150 -4 155 -115 155 -48 0 -78 -5 -93 -16z"/>
<path d="M540 1206 c0 -33 42 -145 70 -188 164 -247 517 -285 728 -78 57 57
116 166 128 238 l7 42 -86 0 -85 0 -13 -37 c-28 -87 -115 -170 -203 -194 -68
-19 -167 -6 -228 28 -60 34 -119 105 -137 164 l-12 39 -84 0 c-66 0 -85 -3
-85 -14z"/>
<path d="M508 651 c-161 -52 -296 -205 -328 -370 -21 -112 -5 -170 51 -190 22
-8 257 -11 776 -11 810 0 802 -1 823 55 22 58 4 174 -41 271 -27 57 -114 152
-177 194 -25 17 -75 39 -110 50 -60 19 -93 20 -501 19 -394 0 -441 -2 -493
-18z m931 -162 c66 -20 143 -80 178 -139 60 -99 122 -90 -612 -90 -718 0 -664
-6 -626 69 29 55 120 134 177 154 42 13 108 16 448 16 261 1 411 -3 435 -10z"/>
</g>
</svg>
