<?xml version="1.0" standalone="no"?>
<!DOCTYPE svg PUBLIC "-//W3C//DTD SVG 20010904//EN"
 "http://www.w3.org/TR/2001/REC-SVG-20010904/DTD/svg10.dtd">
<svg version="1.0" xmlns="http://www.w3.org/2000/svg"
 width="512.000000pt" height="512.000000pt" viewBox="0 0 512.000000 512.000000"
 preserveAspectRatio="xMidYMid meet">

<g transform="translate(0.000000,512.000000) scale(0.100000,-0.100000)"
fill="#000000" stroke="none">
<path d="M3475 4591 c-45 -20 -70 -60 -70 -112 0 -41 5 -53 32 -80 30 -31 36
-32 145 -40 356 -27 628 -149 868 -389 240 -240 362 -513 389 -868 8 -109 9
-115 40 -145 27 -27 39 -32 81 -32 43 0 54 5 82 32 28 28 33 40 36 95 5 88
-22 283 -57 409 -74 262 -202 480 -401 680 -232 232 -510 379 -830 435 -106
18 -288 27 -315 15z"/>
<path d="M2210 4263 c-19 -11 -422 -262 -895 -558 l-860 -540 -172 -5 -173 -5
-32 -33 -33 -32 0 -1490 0 -1490 33 -32 32 -33 1570 -3 c1744 -2 1646 -6 1790
64 102 50 213 161 264 265 55 111 66 182 66 421 l0 206 125 4 125 3 32 33 33
32 0 530 0 530 -33 32 -32 33 -125 3 -125 4 0 206 c0 239 -11 310 -66 420 -43
89 -138 192 -220 242 -32 19 -94 47 -138 61 l-81 26 -75 291 c-81 314 -90 336
-154 348 -21 3 -101 -12 -235 -46 -112 -28 -208 -47 -212 -43 -4 4 -62 123
-129 263 -66 140 -131 265 -144 278 -32 32 -91 38 -136 15z m91 -454 c43 -90
74 -167 71 -170 -11 -9 -1175 -298 -1166 -289 23 22 1000 629 1008 627 6 -2
45 -77 87 -168z m700 -464 l46 -185 -786 1 c-432 1 -779 3 -771 6 65 18 1438
361 1450 362 12 1 26 -43 61 -184z m344 -458 c78 -36 146 -104 182 -181 28
-60 28 -64 31 -283 l3 -223 -278 0 c-336 0 -359 -4 -439 -84 -82 -83 -84 -94
-84 -516 0 -422 2 -433 83 -514 82 -81 105 -86 439 -86 l279 0 -3 -223 c-3
-219 -3 -223 -31 -282 -36 -78 -104 -146 -181 -182 l-61 -28 -1502 -3 -1503
-2 0 1320 0 1320 1503 -2 1502 -3 60 -28z m535 -1287 l0 -360 -428 0 c-320 0
-431 3 -440 12 -17 17 -17 679 0 696 9 9 120 12 440 12 l428 0 0 -360z"/>
<path d="M1555 2671 c-11 -5 -31 -21 -45 -36 -23 -25 -25 -34 -28 -151 l-4
-124 -38 0 c-267 0 -477 -248 -432 -510 28 -164 130 -284 296 -348 31 -12 99
-17 282 -21 240 -6 241 -6 281 -33 63 -41 88 -90 88 -169 0 -54 -5 -72 -27
-106 -15 -22 -44 -51 -65 -64 -37 -24 -42 -24 -295 -24 l-258 0 -30 30 c-21
21 -33 46 -40 85 -15 79 -53 115 -120 115 -43 0 -54 -5 -82 -33 -31 -30 -33
-37 -33 -100 1 -128 84 -251 210 -309 50 -23 77 -28 162 -31 l101 -4 4 -124 3
-124 33 -32 c28 -28 39 -33 82 -33 43 0 54 5 82 33 l33 32 3 125 4 125 42 0
c23 0 68 7 99 15 177 46 299 179 330 360 35 207 -97 417 -308 488 -16 5 -138
13 -271 16 -240 6 -241 6 -281 33 -62 41 -88 90 -88 168 0 78 26 127 88 168
l41 27 258 0 258 0 30 -30 c21 -21 33 -46 40 -85 15 -79 53 -115 120 -115 43
0 54 5 82 33 31 30 33 37 33 100 -1 127 -85 252 -209 308 -51 23 -78 29 -163
32 l-101 4 -4 124 c-3 123 -3 124 -34 155 -33 33 -92 46 -129 30z"/>
<path d="M3258 1704 c-56 -30 -75 -113 -39 -168 67 -101 221 -56 221 64 0 92
-99 149 -182 104z"/>
<path d="M3475 4111 c-45 -20 -70 -60 -70 -112 0 -41 5 -53 31 -80 30 -29 39
-32 130 -40 232 -22 413 -105 558 -260 145 -153 214 -311 235 -533 8 -91 11
-100 40 -130 27 -26 39 -31 81 -31 43 0 54 5 82 33 l33 33 -2 107 c-3 194 -87
428 -212 593 -187 246 -490 408 -790 424 -53 3 -105 1 -116 -4z"/>
<path d="M3475 3630 c-44 -18 -70 -59 -70 -111 0 -41 5 -53 31 -80 26 -26 42
-32 104 -40 191 -24 315 -148 339 -340 8 -61 14 -77 40 -103 27 -26 39 -31 81
-31 42 0 54 5 81 32 25 24 33 42 37 81 6 69 -22 187 -65 275 -46 91 -160 208
-250 255 -107 56 -269 87 -328 62z"/>
</g>
</svg>
