<?xml version="1.0" standalone="no"?>
<!DOCTYPE svg PUBLIC "-//W3C//DTD SVG 20010904//EN"
 "http://www.w3.org/TR/2001/REC-SVG-20010904/DTD/svg10.dtd">
<svg version="1.0" xmlns="http://www.w3.org/2000/svg"
 width="228.000000pt" height="211.000000pt" viewBox="0 0 228.000000 211.000000"
 preserveAspectRatio="xMidYMid meet">

<g transform="translate(0.000000,211.000000) scale(0.100000,-0.100000)"
fill="#000000" stroke="none">
<path d="M852 2000 c-399 -55 -694 -412 -668 -810 7 -121 27 -202 71 -293 117
-243 341 -403 615 -438 156 -20 331 17 476 100 l71 41 249 -249 c209 -210 255
-251 285 -256 99 -18 172 84 125 173 -8 15 -121 133 -250 262 -130 128 -236
238 -236 243 0 5 8 21 19 35 130 185 157 487 64 719 -89 223 -314 412 -548
461 -77 16 -203 21 -273 12z m265 -255 c200 -63 328 -210 370 -421 16 -81 16
-95 1 -179 -20 -120 -65 -210 -144 -290 -103 -105 -208 -152 -359 -162 -272
-17 -503 161 -560 432 -18 88 -18 122 0 210 31 147 130 291 249 360 129 75
303 95 443 50z"/>
</g>
</svg>
