<?xml version="1.0" standalone="no"?>
<!DOCTYPE svg PUBLIC "-//W3C//DTD SVG 20010904//EN"
 "http://www.w3.org/TR/2001/REC-SVG-20010904/DTD/svg10.dtd">
<svg version="1.0" xmlns="http://www.w3.org/2000/svg"
 width="230.000000pt" height="208.000000pt" viewBox="0 0 230.000000 208.000000"
 preserveAspectRatio="xMidYMid meet">

<g transform="translate(0.000000,208.000000) scale(0.100000,-0.100000)"
fill="#000000" stroke="none">
<path d="M1070 1949 c-180 -30 -333 -172 -375 -350 -69 -296 115 -557 420
-594 66 -8 189 16 262 52 247 120 330 455 172 692 -68 102 -170 170 -298 197
-74 15 -101 16 -181 3z"/>
<path d="M920 813 c-72 -9 -159 -33 -216 -59 -186 -84 -331 -268 -369 -467
-27 -140 -18 -193 37 -227 32 -19 51 -20 781 -20 808 0 784 -2 821 52 34 48 9
223 -48 343 -87 183 -232 305 -424 357 -66 18 -111 21 -312 23 -129 2 -251 1
-270 -2z"/>
</g>
</svg>
